<?xml version="1.0" encoding="UTF-8"?>
<!--Generator: Apple Native CoreSVG 175.5-->
<!DOCTYPE svg
PUBLIC "-//W3C//DTD SVG 1.1//EN"
       "http://www.w3.org/Graphics/SVG/1.1/DTD/svg11.dtd">
<svg version="1.1" xmlns="http://www.w3.org/2000/svg" xmlns:xlink="http://www.w3.org/1999/xlink" width="3300" height="2200">
 <!--glyph: "uni100212.medium", point size: 100.0, font version: "18.0d12e2", template writer version: "101"-->
 <g id="Notes">
  <rect height="2200" id="artboard" style="fill:white;opacity:1" width="3300" x="0" y="0"/>
  <line style="fill:none;stroke:black;opacity:1;stroke-width:0.5;" x1="263" x2="3036" y1="292" y2="292"/>
  <text style="stroke:none;fill:black;font-family:sans-serif;font-size:13;font-weight:bold;" transform="matrix(1 0 0 1 263 322)">Weight/Scale Variations</text>
  <text style="stroke:none;fill:black;font-family:sans-serif;font-size:13;text-anchor:middle;" transform="matrix(1 0 0 1 559.711 322)">Ultralight</text>
  <text style="stroke:none;fill:black;font-family:sans-serif;font-size:13;text-anchor:middle;" transform="matrix(1 0 0 1 856.422 322)">Thin</text>
  <text style="stroke:none;fill:black;font-family:sans-serif;font-size:13;text-anchor:middle;" transform="matrix(1 0 0 1 1153.13 322)">Light</text>
  <text style="stroke:none;fill:black;font-family:sans-serif;font-size:13;text-anchor:middle;" transform="matrix(1 0 0 1 1449.84 322)">Regular</text>
  <text style="stroke:none;fill:black;font-family:sans-serif;font-size:13;text-anchor:middle;" transform="matrix(1 0 0 1 1746.56 322)">Medium</text>
  <text style="stroke:none;fill:black;font-family:sans-serif;font-size:13;text-anchor:middle;" transform="matrix(1 0 0 1 2043.27 322)">Semibold</text>
  <text style="stroke:none;fill:black;font-family:sans-serif;font-size:13;text-anchor:middle;" transform="matrix(1 0 0 1 2339.98 322)">Bold</text>
  <text style="stroke:none;fill:black;font-family:sans-serif;font-size:13;text-anchor:middle;" transform="matrix(1 0 0 1 2636.69 322)">Heavy</text>
  <text style="stroke:none;fill:black;font-family:sans-serif;font-size:13;text-anchor:middle;" transform="matrix(1 0 0 1 2933.4 322)">Black</text>
  <line style="fill:none;stroke:black;opacity:1;stroke-width:0.5;" x1="263" x2="3036" y1="1903" y2="1903"/>
  <g transform="matrix(1 0 0 1 263 1933)">
   <path d="M9.24805 0.830078C13.5547 0.830078 17.1387-2.74414 17.1387-7.05078C17.1387-11.3574 13.5449-14.9316 9.23828-14.9316C4.94141-14.9316 1.36719-11.3574 1.36719-7.05078C1.36719-2.74414 4.95117 0.830078 9.24805 0.830078ZM9.24805-0.654297C5.70312-0.654297 2.87109-3.49609 2.87109-7.05078C2.87109-10.6055 5.69336-13.4473 9.23828-13.4473C12.793-13.4473 15.6445-10.6055 15.6445-7.05078C15.6445-3.49609 12.8027-0.654297 9.24805-0.654297ZM5.6543-7.05078C5.6543-6.62109 5.95703-6.32812 6.40625-6.32812L8.50586-6.32812L8.50586-4.20898C8.50586-3.76953 8.79883-3.4668 9.22852-3.4668C9.67773-3.4668 9.9707-3.76953 9.9707-4.20898L9.9707-6.32812L12.0898-6.32812C12.5293-6.32812 12.832-6.62109 12.832-7.05078C12.832-7.49023 12.5293-7.79297 12.0898-7.79297L9.9707-7.79297L9.9707-9.90234C9.9707-10.3516 9.67773-10.6543 9.22852-10.6543C8.79883-10.6543 8.50586-10.3516 8.50586-9.90234L8.50586-7.79297L6.40625-7.79297C5.95703-7.79297 5.6543-7.49023 5.6543-7.05078Z"/>
  </g>
  <g transform="matrix(1 0 0 1 281.867 1933)">
   <path d="M11.709 2.91016C17.1582 2.91016 21.6699-1.61133 21.6699-7.05078C21.6699-12.5 17.1484-17.0117 11.6992-17.0117C6.25977-17.0117 1.74805-12.5 1.74805-7.05078C1.74805-1.61133 6.26953 2.91016 11.709 2.91016ZM11.709 1.25C7.09961 1.25 3.41797-2.44141 3.41797-7.05078C3.41797-11.6602 7.08984-15.3516 11.6992-15.3516C16.3086-15.3516 20.0098-11.6602 20.0098-7.05078C20.0098-2.44141 16.3184 1.25 11.709 1.25ZM7.17773-7.05078C7.17773-6.57227 7.50977-6.25 8.00781-6.25L10.8789-6.25L10.8789-3.36914C10.8789-2.88086 11.2109-2.53906 11.6895-2.53906C12.1777-2.53906 12.5195-2.87109 12.5195-3.36914L12.5195-6.25L15.4004-6.25C15.8887-6.25 16.2305-6.57227 16.2305-7.05078C16.2305-7.53906 15.8887-7.88086 15.4004-7.88086L12.5195-7.88086L12.5195-10.752C12.5195-11.25 12.1777-11.5918 11.6895-11.5918C11.2109-11.5918 10.8789-11.25 10.8789-10.752L10.8789-7.88086L8.00781-7.88086C7.50977-7.88086 7.17773-7.53906 7.17773-7.05078Z"/>
  </g>
  <g transform="matrix(1 0 0 1 305.646 1933)">
   <path d="M14.9707 5.66406C21.9336 5.66406 27.6953-0.0976562 27.6953-7.05078C27.6953-14.0137 21.9238-19.7754 14.9609-19.7754C8.00781-19.7754 2.25586-14.0137 2.25586-7.05078C2.25586-0.0976562 8.01758 5.66406 14.9707 5.66406ZM14.9707 3.84766C8.93555 3.84766 4.08203-1.01562 4.08203-7.05078C4.08203-13.0957 8.92578-17.9492 14.9609-17.9492C21.0059-17.9492 25.8691-13.0957 25.8691-7.05078C25.8691-1.01562 21.0156 3.84766 14.9707 3.84766ZM9.19922-7.05078C9.19922-6.5332 9.57031-6.17188 10.1172-6.17188L14.0625-6.17188L14.0625-2.2168C14.0625-1.67969 14.4336-1.29883 14.9512-1.29883C15.4883-1.29883 15.8594-1.66992 15.8594-2.2168L15.8594-6.17188L19.8145-6.17188C20.3516-6.17188 20.7324-6.5332 20.7324-7.05078C20.7324-7.59766 20.3613-7.96875 19.8145-7.96875L15.8594-7.96875L15.8594-11.9141C15.8594-12.4609 15.4883-12.8418 14.9512-12.8418C14.4336-12.8418 14.0625-12.4609 14.0625-11.9141L14.0625-7.96875L10.1172-7.96875C9.57031-7.96875 9.19922-7.59766 9.19922-7.05078Z"/>
  </g>
  <text style="stroke:none;fill:black;font-family:sans-serif;font-size:13;font-weight:bold;" transform="matrix(1 0 0 1 263 1953)">Design Variations</text>
  <text style="stroke:none;fill:black;font-family:sans-serif;font-size:13;" transform="matrix(1 0 0 1 263 1971)">Symbols are supported in up to nine weights and three scales.</text>
  <text style="stroke:none;fill:black;font-family:sans-serif;font-size:13;" transform="matrix(1 0 0 1 263 1989)">For optimal layout with text and other symbols, vertically align</text>
  <text style="stroke:none;fill:black;font-family:sans-serif;font-size:13;" transform="matrix(1 0 0 1 263 2007)">symbols with the adjacent text.</text>
  <line style="fill:none;stroke:#00AEEF;stroke-width:0.5;opacity:1.0;" x1="776" x2="776" y1="1919" y2="1933"/>
  <g transform="matrix(1 0 0 1 776 1933)">
   <path d="M3.31055 0.15625C3.82812 0.15625 4.08203-0.0390625 4.26758-0.585938L5.52734-4.0332L11.2891-4.0332L12.5488-0.585938C12.7344-0.0390625 12.9883 0.15625 13.4961 0.15625C14.0137 0.15625 14.3457-0.15625 14.3457-0.644531C14.3457-0.810547 14.3164-0.966797 14.2383-1.17188L9.6582-13.3691C9.43359-13.9648 9.0332-14.2676 8.4082-14.2676C7.80273-14.2676 7.39258-13.9746 7.17773-13.3789L2.59766-1.16211C2.51953-0.957031 2.49023-0.800781 2.49023-0.634766C2.49023-0.146484 2.80273 0.15625 3.31055 0.15625ZM6.00586-5.51758L8.37891-12.0898L8.42773-12.0898L10.8008-5.51758Z"/>
  </g>
  <line style="fill:none;stroke:#00AEEF;stroke-width:0.5;opacity:1.0;" x1="793.197" x2="793.197" y1="1919" y2="1933"/>
  <text style="stroke:none;fill:black;font-family:sans-serif;font-size:13;font-weight:bold;" transform="matrix(1 0 0 1 776 1953)">Margins</text>
  <text style="stroke:none;fill:black;font-family:sans-serif;font-size:13;" transform="matrix(1 0 0 1 776 1971)">Leading and trailing margins on the left and right side of each symbol</text>
  <text style="stroke:none;fill:black;font-family:sans-serif;font-size:13;" transform="matrix(1 0 0 1 776 1989)">can be adjusted by modifying the x-location of the margin guidelines.</text>
  <text style="stroke:none;fill:black;font-family:sans-serif;font-size:13;" transform="matrix(1 0 0 1 776 2007)">Modifications are automatically applied proportionally to all</text>
  <text style="stroke:none;fill:black;font-family:sans-serif;font-size:13;" transform="matrix(1 0 0 1 776 2025)">scales and weights.</text>
  <g transform="matrix(1 0 0 1 1289 1933)">
   <path d="M2.8418 1.86523L4.54102 3.57422C5.40039 4.44336 6.38672 4.38477 7.31445 3.35938L18.0078-8.42773L17.041-9.4043L6.42578 2.27539C6.07422 2.67578 5.74219 2.77344 5.27344 2.30469L4.10156 1.14258C3.63281 0.683594 3.74023 0.341797 4.14062-0.0195312L15.6152-10.8203L14.6387-11.7871L3.04688-0.898438C2.06055 0.0195312 1.98242 0.996094 2.8418 1.86523ZM9.25781-16.3281C8.83789-15.918 8.80859-15.3418 9.04297-14.9512C9.27734-14.5898 9.73633-14.3555 10.3809-14.5215C11.8457-14.8633 13.3691-14.9219 14.7949-13.9844L14.209-12.5293C13.8672-11.6992 14.043-11.1133 14.5801-10.5664L16.875-8.25195C17.3633-7.76367 17.7734-7.74414 18.3398-7.8418L19.4043-8.03711L20.0684-7.36328L20.0293-6.80664C19.9902-6.30859 20.1172-5.92773 20.6055-5.44922L21.3672-4.70703C21.8457-4.22852 22.4609-4.19922 22.9297-4.66797L25.8398-7.58789C26.3086-8.05664 26.2891-8.65234 25.8105-9.13086L25.0391-9.89258C24.5605-10.3711 24.1895-10.5273 23.7109-10.4883L23.1348-10.4395L22.4902-11.0742L22.7344-12.1973C22.8613-12.7637 22.7051-13.2031 22.1191-13.7891L19.9219-15.9766C16.582-19.2969 12.1484-19.2188 9.25781-16.3281ZM10.752-15.957C13.1836-17.7344 16.4746-17.4316 18.7012-15.2051L21.1328-12.793C21.3672-12.5586 21.4062-12.373 21.3379-12.0312L21.0156-10.5469L22.5195-9.0625L23.5059-9.12109C23.7598-9.13086 23.8379-9.11133 24.0332-8.91602L24.6094-8.33984L22.168-5.89844L21.5918-6.47461C21.3965-6.66992 21.3672-6.74805 21.377-7.01172L21.4453-7.98828L19.9512-9.47266L18.4277-9.21875C18.1055-9.15039 17.959-9.17969 17.7148-9.41406L15.7129-11.416C15.459-11.6504 15.4297-11.8164 15.5859-12.1875L16.4648-14.2773C14.9023-15.7324 12.8711-16.3574 10.8398-15.7617C10.6836-15.7227 10.625-15.8496 10.752-15.957Z"/>
  </g>
  <text style="stroke:none;fill:black;font-family:sans-serif;font-size:13;font-weight:bold;" transform="matrix(1 0 0 1 1289 1953)">Exporting</text>
  <text style="stroke:none;fill:black;font-family:sans-serif;font-size:13;" transform="matrix(1 0 0 1 1289 1971)">Symbols should be outlined when exporting to ensure the</text>
  <text style="stroke:none;fill:black;font-family:sans-serif;font-size:13;" transform="matrix(1 0 0 1 1289 1989)">design is preserved when submitting to Xcode.</text>
  <text id="template-version" style="stroke:none;fill:black;font-family:sans-serif;font-size:13;text-anchor:end;" transform="matrix(1 0 0 1 3036 1933)">Template v.4.0</text>
  <text style="stroke:none;fill:black;font-family:sans-serif;font-size:13;text-anchor:end;" transform="matrix(1 0 0 1 3036 1951)">Requires Xcode 14 or greater</text>
  <text id="descriptive-name" style="stroke:none;fill:black;font-family:sans-serif;font-size:13;text-anchor:end;" transform="matrix(1 0 0 1 3036 1969)">Generated from trash.fill</text>
  <text style="stroke:none;fill:black;font-family:sans-serif;font-size:13;text-anchor:end;" transform="matrix(1 0 0 1 3036 1987)">Typeset at 100 points</text>
  <text style="stroke:none;fill:black;font-family:sans-serif;font-size:13;" transform="matrix(1 0 0 1 263 726)">Small</text>
  <text style="stroke:none;fill:black;font-family:sans-serif;font-size:13;" transform="matrix(1 0 0 1 263 1156)">Medium</text>
  <text style="stroke:none;fill:black;font-family:sans-serif;font-size:13;" transform="matrix(1 0 0 1 263 1586)">Large</text>
 </g>
 <g id="Guides">
  <g id="H-reference" style="fill:#27AAE1;stroke:none;" transform="matrix(1 0 0 1 339 696)">
   <path d="M0.993654 0L3.63775 0L29.3281-67.1323L30.0303-67.1323L30.0303-70.459L28.1226-70.459ZM11.6885-24.4799L46.9815-24.4799L46.2315-26.7285L12.4385-26.7285ZM55.1196 0L57.7637 0L30.6382-70.459L29.4326-70.459L29.4326-67.1323Z"/>
  </g>
  <line id="Baseline-S" style="fill:none;stroke:#27AAE1;opacity:1;stroke-width:0.5;" x1="263" x2="3036" y1="696" y2="696"/>
  <line id="Capline-S" style="fill:none;stroke:#27AAE1;opacity:1;stroke-width:0.5;" x1="263" x2="3036" y1="625.541" y2="625.541"/>
  <g id="H-reference" style="fill:#27AAE1;stroke:none;" transform="matrix(1 0 0 1 339 1126)">
   <path d="M0.993654 0L3.63775 0L29.3281-67.1323L30.0303-67.1323L30.0303-70.459L28.1226-70.459ZM11.6885-24.4799L46.9815-24.4799L46.2315-26.7285L12.4385-26.7285ZM55.1196 0L57.7637 0L30.6382-70.459L29.4326-70.459L29.4326-67.1323Z"/>
  </g>
  <line id="Baseline-M" style="fill:none;stroke:#27AAE1;opacity:1;stroke-width:0.5;" x1="263" x2="3036" y1="1126" y2="1126"/>
  <line id="Capline-M" style="fill:none;stroke:#27AAE1;opacity:1;stroke-width:0.5;" x1="263" x2="3036" y1="1055.54" y2="1055.54"/>
  <g id="H-reference" style="fill:#27AAE1;stroke:none;" transform="matrix(1 0 0 1 339 1556)">
   <path d="M0.993654 0L3.63775 0L29.3281-67.1323L30.0303-67.1323L30.0303-70.459L28.1226-70.459ZM11.6885-24.4799L46.9815-24.4799L46.2315-26.7285L12.4385-26.7285ZM55.1196 0L57.7637 0L30.6382-70.459L29.4326-70.459L29.4326-67.1323Z"/>
  </g>
  <line id="Baseline-L" style="fill:none;stroke:#27AAE1;opacity:1;stroke-width:0.5;" x1="263" x2="3036" y1="1556" y2="1556"/>
  <line id="Capline-L" style="fill:none;stroke:#27AAE1;opacity:1;stroke-width:0.5;" x1="263" x2="3036" y1="1485.54" y2="1485.54"/>
  <line id="left-margin-Regular-M" style="fill:none;stroke:#00AEEF;stroke-width:0.5;opacity:1.0;" x1="1395.12" x2="1395.12" y1="1030.79" y2="1150.12"/>
  <line id="right-margin-Regular-M" style="fill:none;stroke:#00AEEF;stroke-width:0.5;opacity:1.0;" x1="1504.57" x2="1504.57" y1="1030.79" y2="1150.12"/>
 </g>
 <g id="Symbols">
  <g id="Black-L" transform="matrix(1 0 0 1 2857.79 1556)">
   <path d="M43.0465-86.8279L61.5588-86.8279L61.5588-98.1433C61.5588-99.9426 62.75-100.954 64.9485-100.954L86.2652-100.954C88.4649-100.954 89.6561-99.9426 89.6561-98.1433L89.6561-86.8279L108.126-86.8279L108.126-98.5851C108.126-110.327 100.86-116.784 87.5807-116.784L63.5914-116.784C50.3131-116.784 43.0465-110.327 43.0465-98.5851ZM18.1726-73.3257L133.042-73.3257C137.972-73.3257 141.564-76.7061 141.564-81.6351C141.564-86.4498 137.971-89.8278 133.042-89.8278L18.1726-89.8278C13.2852-89.8278 9.64919-86.4486 9.64919-81.6351C9.64919-76.7049 13.2852-73.3257 18.1726-73.3257ZM126.662-74.6124L24.5956-74.6124L28.5357 14.5301C28.9742 25.3301 34.8927 30.732 46.0843 30.732L105.172 30.732C116.342 30.732 122.224 25.3301 122.721 14.5301ZM54.6419 7.51978C51.3331 7.51978 48.9978 5.28446 48.9185 1.91965L47.0813-59.8149C47.0021-63.2185 49.1634-65.4746 52.6283-65.4746C56.0891-65.4746 58.4477-63.2185 58.5269-59.8757L60.3641 1.80164C60.4433 5.20404 58.2248 7.51978 54.6419 7.51978ZM75.6074 7.51978C72.2218 7.51978 69.902 5.32205 69.902 1.97686L69.902-59.9317C69.902-63.2549 72.2218-65.4746 75.6074-65.4746C79.0151-65.4746 81.3129-63.2549 81.3129-59.9317L81.3129 1.97686C81.3129 5.32205 79.0151 7.51978 75.6074 7.51978ZM96.5938 7.52217C93.0097 7.52217 90.7924 5.20524 90.8716 1.80284L92.7088-59.8745C92.788-63.2173 95.1258-65.4734 98.6062-65.4734C102.072-65.4734 104.232-63.1965 104.153-59.8137L102.316 1.92085C102.237 5.28566 99.8818 7.52217 96.5938 7.52217Z"/>
  </g>
  <g id="Heavy-L" transform="matrix(1 0 0 1 2562.31 1556)">
   <path d="M42.8845-86.2814L59.5529-86.2814L59.5529-97.5628C59.5529-99.7426 60.9983-101.032 63.54-101.032L85.2275-101.032C87.7748-101.032 89.2202-99.7426 89.2202-97.5628L89.2202-86.2814L105.823-86.2814L105.823-98.0431C105.823-109.208 98.8331-115.494 86.366-115.494L62.3411-115.494C49.8797-115.494 42.8845-109.208 42.8845-98.0431ZM17.1932-74.3339L131.58-74.3339C135.927-74.3339 139.123-77.3873 139.123-81.7284C139.123-85.9915 135.921-89.0336 131.58-89.0336L17.1932-89.0336C12.9124-89.0336 9.64478-85.9859 9.64478-81.7284C9.64478-77.3816 12.9124-74.3339 17.1932-74.3339ZM124.439-75.6207L24.3999-75.6207L28.4057 14.6709C28.8166 24.7358 34.4528 29.8919 44.8167 29.8919L104.017 29.8919C114.345 29.8919 119.972 24.7358 120.428 14.6709ZM53.6852 7.9064C50.6439 7.9064 48.5127 5.88013 48.4378 2.80546L46.5791-60.6873C46.5043-63.782 48.5073-65.8385 51.687-65.8385C54.8207-65.8385 56.9934-63.782 57.0682-60.7432L58.9269 2.7106C59.0017 5.79971 56.9597 7.9064 53.6852 7.9064ZM74.3865 7.9064C71.2817 7.9064 69.1291 5.89456 69.1291 2.84447L69.1291-60.7766C69.1291-63.7909 71.2817-65.8385 74.3865-65.8385C77.5272-65.8385 79.644-63.7909 79.644-60.7766L79.644 2.84447C79.644 5.89456 77.5272 7.9064 74.3865 7.9064ZM95.1181 7.91763C91.838 7.91763 89.8015 5.80532 89.8763 2.71621L91.7351-60.7375C91.8099-63.7764 93.9524-65.8329 97.1107-65.8329C100.296-65.8329 102.293-63.7462 102.219-60.6817L100.36 2.81107C100.285 5.88574 98.1292 7.91763 95.1181 7.91763Z"/>
  </g>
  <g id="Bold-L" transform="matrix(1 0 0 1 2267.05 1556)">
   <path d="M42.7219-85.5977L57.0038-85.5977L57.0038-96.9374C57.0038-99.6234 58.7792-101.258 61.7957-101.258L84.056-101.258C87.0858-101.258 88.8611-99.6234 88.8611-96.9374L88.8611-85.5977L103.054-85.5977L103.054-97.4341C103.054-107.862 96.4397-113.896 84.9643-113.896L60.8115-113.896C49.3493-113.896 42.7219-107.862 42.7219-97.4341ZM15.9717-75.6385L129.893-75.6385C133.518-75.6385 136.215-78.2697 136.215-81.8809C136.215-85.4602 133.505-88.065 129.893-88.065L15.9717-88.065C12.4364-88.065 9.63716-85.447 9.63716-81.8809C9.63716-78.2565 12.4364-75.6385 15.9717-75.6385ZM121.8-76.9252L24.1541-76.9252L28.2816 14.9221C28.6617 24.0951 34.0116 29.0109 43.3907 29.0109L102.55 29.0109C111.878 29.0109 117.25 24.0951 117.659 14.9221ZM52.5614 8.39779C49.873 8.39779 48.0101 6.64015 47.9429 3.94893L46.0387-61.7409C45.9715-64.4365 47.7599-66.2321 50.5563-66.2321C53.268-66.2321 55.1952-64.4365 55.2624-61.7965L57.1667 3.87729C57.2339 6.55973 55.4295 8.39779 52.5614 8.39779ZM72.9325 8.39779C70.2033 8.39779 68.2804 6.63136 68.2804 3.9649L68.2804-61.7993C68.2804-64.4145 70.2033-66.2321 72.9325-66.2321C75.7129-66.2321 77.5845-64.4145 77.5845-61.7993L77.5845 3.9649C77.5845 6.63136 75.7129 8.39779 72.9325 8.39779ZM93.3415 8.42425C90.4602 8.42425 88.6691 6.57296 88.7362 3.89052L90.6405-61.7833C90.7077-64.4233 92.597-66.2189 95.3334-66.2189C98.143-66.2189 99.9182-64.3853 99.851-61.7276L97.9468 3.96216C97.8796 6.65338 95.992 8.42425 93.3415 8.42425Z"/>
  </g>
  <g id="Semibold-L" transform="matrix(1 0 0 1 1971.35 1556)">
   <path d="M42.6099-85.1264L55.2465-85.1264L55.2465-96.5064C55.2465-99.5412 57.2493-101.414 60.5932-101.414L83.2484-101.414C86.6108-101.414 88.6136-99.5412 88.6136-96.5064L88.6136-85.1264L101.145-85.1264L101.145-97.0143C101.145-106.934 94.7897-112.794 83.998-112.794L59.7569-112.794C48.9836-112.794 42.6099-106.934 42.6099-97.0143ZM15.1296-76.5378L128.73-76.5378C131.857-76.5378 134.21-78.8781 134.21-81.9861C134.21-85.0939 131.839-87.3972 128.73-87.3972L15.1296-87.3972C12.1083-87.3972 9.63191-85.0755 9.63191-81.9861C9.63191-78.8596 12.1083-76.5378 15.1296-76.5378ZM119.981-77.8245L23.9846-77.8245L28.196 15.0952C28.5548 23.6533 33.7074 28.4036 42.4076 28.4036L101.539 28.4036C110.178 28.4036 115.373 23.6533 115.751 15.0952ZM51.7867 8.73655C49.3415 8.73655 47.6637 7.1641 47.6018 4.73723L45.6661-62.4672C45.6042-64.8877 47.2447-66.5035 49.7769-66.5035C52.1975-66.5035 53.9556-64.8877 54.0175-62.5227L55.9532 4.6816C56.0151 7.08368 54.3745 8.73655 51.7867 8.73655ZM71.93 8.73655C69.4598 8.73655 67.6954 7.13931 67.6954 4.73732L67.6954-62.5043C67.6954-64.8444 69.4598-66.5035 71.93-66.5035C74.4621-66.5035 76.1647-64.8444 76.1647-62.5043L76.1647 4.73732C76.1647 7.13931 74.4621 8.73655 71.93 8.73655ZM92.1167 8.77351C89.5104 8.77351 87.8883 7.10216 87.9503 4.70008L89.8859-62.5042C89.9479-64.8692 91.6626-66.4851 94.1081-66.4851C96.6588-66.4851 98.2808-64.8259 98.2189-62.4487L96.2832 4.75571C96.2213 7.18258 94.5186 8.77351 92.1167 8.77351Z"/>
  </g>
  <g id="Medium-L" transform="matrix(1 0 0 1 1675.4 1556)">
   <path d="M42.5249-84.769L53.914-84.769L53.914-96.1795C53.914-99.4788 56.0893-101.533 59.6814-101.533L82.636-101.533C86.2506-101.533 88.4259-99.4788 88.4259-96.1795L88.4259-84.769L99.6977-84.769L99.6977-96.696C99.6977-106.23 93.5387-111.958 83.2653-111.958L58.9573-111.958C48.7064-111.958 42.5249-106.23 42.5249-96.696ZM14.4911-77.2197L127.849-77.2197C130.598-77.2197 132.69-79.3393 132.69-82.0658C132.69-84.8162 130.575-86.8909 127.849-86.8909L14.4911-86.8909C11.8595-86.8909 9.62793-84.7937 9.62793-82.0658C9.62793-79.3169 11.8595-77.2197 14.4911-77.2197ZM118.601-78.5065L23.8562-78.5065L28.1312 15.2265C28.4739 23.3184 33.4768 27.9431 41.6622 27.9431L100.773 27.9431C108.888 27.9431 113.95 23.3184 114.304 15.2265ZM51.1993 8.99341C48.9385 8.99341 47.401 7.56138 47.3431 5.33495L45.3836-63.0179C45.3257-65.2298 46.854-66.7093 49.1858-66.7093C51.3859-66.7093 53.0156-65.2298 53.0736-63.0733L55.0331 5.29146C55.091 7.48096 53.5746 8.99341 51.1993 8.99341ZM71.17 8.99341C68.8961 8.99341 67.2518 7.52445 67.2518 5.323L67.2518-63.0389C67.2518-65.1704 68.8961-66.7093 71.17-66.7093C73.5137-66.7093 75.0881-65.1704 75.0881-63.0389L75.0881 5.323C75.0881 7.52445 73.5137 8.99341 71.17 8.99341ZM91.1881 9.03833C88.7903 9.03833 87.2963 7.50343 87.3543 5.31392L89.3138-63.0509C89.3717-65.2074 90.9541-66.6868 93.1791-66.6868C95.5334-66.6868 97.0392-65.1599 96.9813-62.9954L95.0218 5.35741C94.9639 7.58385 93.4015 9.03833 91.1881 9.03833Z"/>
  </g>
  <g id="Regular-L" transform="matrix(1 0 0 1 1379.68 1556)">
   <path d="M42.4141-84.3029L52.176-84.3029L52.176-95.7531C52.176-99.3975 54.5763-101.687 58.4922-101.687L81.8373-101.687C85.7808-101.687 88.181-99.3975 88.181-95.7531L88.181-84.3029L97.8098-84.3029L97.8098-96.2808C97.8098-105.313 91.9068-110.869 82.3096-110.869L57.9143-110.869C48.3447-110.869 42.4141-105.313 42.4141-96.2808ZM13.6582-78.1092L126.699-78.1092C128.955-78.1092 130.707-79.941 130.707-82.1698C130.707-84.4539 128.928-86.2304 126.699-86.2304L13.6582-86.2304C11.535-86.2304 9.62273-84.4263 9.62273-82.1698C9.62273-79.9134 11.535-78.1092 13.6582-78.1092ZM116.802-79.3959L23.6886-79.3959L28.0465 15.3978C28.3682 22.8816 33.176 27.3425 40.6899 27.3425L99.7727 27.3425C107.206 27.3425 112.094 22.8816 112.416 15.3978ZM50.4331 9.32844C48.4128 9.32844 47.0584 8.07958 47.0056 6.11459L45.0151-63.7362C44.9624-65.6761 46.3444-66.9777 48.4149-66.9777C50.3272-66.9777 51.7896-65.6761 51.8424-63.7915L53.8329 6.08693C53.8857 7.99916 52.5313 9.32844 50.4331 9.32844ZM70.1785 9.32844C68.1608 9.32844 66.6732 8.02682 66.6732 6.08693L66.6732-63.7362C66.6732-65.5957 68.1608-66.9777 70.1785-66.9777C72.2767-66.9777 73.6839-65.5957 73.6839-63.7362L73.6839 6.08693C73.6839 8.02682 72.2767 9.32844 70.1785 9.32844ZM89.9767 9.38376C87.8509 9.38376 86.5242 8.02682 86.5769 6.11459L88.5674-63.7639C88.6202-65.6484 90.0299-66.9501 91.9672-66.9501C94.0654-66.9501 95.4198-65.5957 95.367-63.7085L93.3765 6.14225C93.3238 8.10724 91.9443 9.38376 89.9767 9.38376Z"/>
  </g>
  <g id="Light-L" transform="matrix(1 0 0 1 1083.61 1556)">
   <path d="M42.5477-83.7876L50.0003-83.7876L50.0003-95.9249C50.0003-100.142 52.725-102.68 57.2898-102.68L81.7609-102.68C86.3724-102.68 89.0971-100.142 89.0971-95.9249L89.0971-83.7876L96.4357-83.7876L96.4357-96.2617C96.4357-104.645 91.0098-109.762 82.0042-109.762L56.9791-109.762C48.0203-109.762 42.5477-104.645 42.5477-96.2617ZM12.7612-79.3688L126.336-79.3688C128.096-79.3688 129.447-80.7998 129.447-82.5134C129.447-84.3203 128.05-85.6579 126.336-85.6579L12.7612-85.6579C11.1151-85.6579 9.60365-84.2736 9.60365-82.5134C9.60365-80.7531 11.1151-79.3688 12.7612-79.3688ZM115.714-80.6555L23.4977-80.6555L28.1992 16.0658C28.5209 23.0533 33.5386 27.7624 40.6327 27.7624L98.5321 27.7624C105.546 27.7624 110.644 23.0533 110.966 16.0658ZM50.0514 9.74832C48.4128 9.74832 47.3447 8.74756 47.311 7.20245L45.1678-64.2897C45.1342-65.8479 46.249-66.8823 47.8615-66.8823C49.3729-66.8823 50.5682-65.8479 50.6019-64.3832L52.745 7.15571C52.7787 8.66714 51.7106 9.74832 50.0514 9.74832ZM69.5487 9.74832C67.9699 9.74832 66.7877 8.71389 66.7877 7.15571L66.7877-64.2897C66.7877-65.7674 67.9699-66.8823 69.5487-66.8823C71.2079-66.8823 72.3097-65.7674 72.3097-64.2897L72.3097 7.15571C72.3097 8.71389 71.2079 9.74832 69.5487 9.74832ZM89.0797 9.8418C87.3738 9.8418 86.3524 8.71389 86.3861 7.20245L88.5293-64.3364C88.5629-65.8011 89.7245-66.8355 91.2229-66.8355C92.8821-66.8355 93.9502-65.7674 93.9166-64.2429L91.7734 7.24919C91.7397 8.79431 90.6847 9.8418 89.0797 9.8418Z"/>
  </g>
  <g id="Thin-L" transform="matrix(1 0 0 1 787.742 1556)">
   <path d="M42.7243-83.1061L47.1228-83.1061L47.1228-96.1521C47.1228-101.126 50.2766-103.992 55.6995-103.992L81.66-103.992C87.1549-103.992 90.3087-101.126 90.3087-96.1521L90.3087-83.1061L94.6183-83.1061L94.6183-96.2364C94.6183-103.761 89.8235-108.298 81.6004-108.298L55.7423-108.298C47.5912-108.298 42.7243-103.761 42.7243-96.2364ZM11.5749-81.0348L125.857-81.0348C126.961-81.0348 127.781-81.9357 127.781-82.9677C127.781-84.1436 126.889-84.9006 125.857-84.9006L11.5749-84.9006C10.5598-84.9006 9.57841-84.0717 9.57841-82.9677C9.57841-81.8637 10.5598-81.0348 11.5749-81.0348ZM114.275-82.3215L23.2453-82.3215L28.4012 16.9492C28.7228 23.2805 34.0182 28.3177 40.5569 28.3177L96.8914 28.3177C103.35 28.3177 108.726 23.2805 109.047 16.9492ZM49.5466 10.3036C48.4128 10.3036 47.7233 9.63103 47.7149 8.64123L45.3698-65.0217C45.3613-66.075 46.1228-66.7561 47.1295-66.7561C48.1108-66.7561 48.9527-66.075 48.9611-65.1657L51.3063 8.56925C51.3147 9.55061 50.6252 10.3036 49.5466 10.3036ZM68.7157 10.3036C67.7175 10.3036 66.9392 9.62259 66.9392 8.56925L66.9392-65.0217C66.9392-65.9946 67.7175-66.7561 68.7157-66.7561C69.7944-66.7561 70.4923-65.9946 70.4923-65.0217L70.4923 8.56925C70.4923 9.62259 69.7944 10.3036 68.7157 10.3036ZM87.8934 10.4476C86.7427 10.4476 86.1252 9.62259 86.1337 8.64123L88.4788-65.0937C88.4872-66.003 89.3207-66.6841 90.2385-66.6841C91.3171-66.6841 92.0066-65.9946 91.9982-64.9497L89.6531 8.71322C89.6446 9.70301 89.0187 10.4476 87.8934 10.4476Z"/>
  </g>
  <g id="Ultralight-L" transform="matrix(1 0 0 1 491.464 1556)">
   <path d="M42.8148-82.757L45.6489-82.757L45.6489-96.2684C45.6489-101.631 49.0225-104.664 54.885-104.664L81.6083-104.664C87.5557-104.664 90.9293-101.631 90.9293-96.2684L90.9293-82.757L93.6874-82.757L93.6874-96.2235C93.6874-103.309 89.2158-107.548 81.3935-107.548L55.1088-107.548C47.3714-107.548 42.8148-103.309 42.8148-96.2235ZM10.9672-81.8881L125.611-81.8881C126.379-81.8881 126.928-82.5175 126.928-83.2004C126.928-84.0531 126.294-84.5128 125.611-84.5128L10.9672-84.5128C10.2753-84.5128 9.56548-83.9682 9.56548-83.2004C9.56548-82.4326 10.2753-81.8881 10.9672-81.8881ZM113.538-83.1748L23.116-83.1748L28.5046 17.4017C28.8263 23.3969 34.2638 28.6021 40.5182 28.6021L96.051 28.6021C102.225 28.6021 107.743 23.3969 108.065 17.4017ZM49.288 10.5881C48.4128 10.5881 47.9172 10.0835 47.9217 9.37817L45.4732-65.3966C45.4777-66.1914 46.0582-66.6914 46.7545-66.6914C47.4644-66.6914 48.1253-66.1914 48.1208-65.5664L50.5693 9.29326C50.5648 10.0031 50.0693 10.5881 49.288 10.5881ZM68.2891 10.5881C67.5882 10.5881 67.0168 10.088 67.0168 9.29326L67.0168-65.3966C67.0168-66.111 67.5882-66.6914 68.2891-66.6914C69.0704-66.6914 69.5614-66.111 69.5614-65.3966L69.5614 9.29326C69.5614 10.088 69.0704 10.5881 68.2891 10.5881ZM87.2857 10.7579C86.4195 10.7579 86.0089 10.088 86.0044 9.37817L88.4529-65.4815C88.4484-66.1065 89.1138-66.6065 89.7343-66.6065C90.5156-66.6065 91.0111-66.111 91.0156-65.3117L88.5671 9.46308C88.5715 10.1684 88.1654 10.7579 87.2857 10.7579Z"/>
  </g>
  <g id="Black-M" transform="matrix(1 0 0 1 2873.86 1126)">
   <path d="M33.5073-75.6049L49.1214-75.6049L49.1214-84.4936C49.1214-85.6381 49.8696-86.2162 51.3659-86.2162L67.7147-86.2162C69.2108-86.2162 69.959-85.6381 69.959-84.4936L69.959-75.6049L85.5624-75.6049L85.5624-84.7769C85.5624-94.2823 79.7612-99.3718 68.855-99.3718L50.2147-99.3718C39.3083-99.3718 33.5073-94.2823 33.5073-84.7769ZM14.7994-64.0483L104.281-64.0483C108.535-64.0483 111.604-66.8941 111.604-71.1483C111.604-75.2877 108.535-78.134 104.281-78.134L14.7994-78.134C10.5562-78.134 7.47685-75.288 7.47685-71.1483C7.47685-66.8943 10.5562-64.0483 14.7994-64.0483ZM99.8934-65.0452L19.1977-65.0452L22.2403 3.29084C22.6037 12.2226 27.46 16.6526 36.7851 16.6526L82.3063 16.6526C91.6262 16.6526 96.4306 12.2226 96.8511 3.29084ZM43.1039-2.38523C40.3622-2.38523 38.4163-4.26306 38.3537-7.06239L36.9282-53.602C36.8656-56.4527 38.64-58.336 41.5074-58.336C44.4154-58.336 46.3662-56.4527 46.4288-53.6586L47.8544-7.1763C47.9169-4.32537 46.0852-2.38523 43.1039-2.38523ZM59.5402-2.38523C56.7354-2.38523 54.8359-4.21146 54.8359-7.00501L54.8359-53.7162C54.8359-56.5046 56.7354-58.336 59.5402-58.336C62.3502-58.336 64.2445-56.5046 64.2445-53.7162L64.2445-7.00501C64.2445-4.21146 62.3502-2.38523 59.5402-2.38523ZM75.982-2.3858C73.001-2.3858 71.169-4.32565 71.2315-7.17658L72.6571-53.6589C72.7197-56.453 74.665-58.3363 77.5788-58.3363C80.4459-58.3363 82.2206-56.4475 82.158-53.6023L80.7324-7.06267C80.6698-4.26335 78.7182-2.3858 75.982-2.3858Z"/>
  </g>
  <g id="Heavy-M" transform="matrix(1 0 0 1 2578.29 1126)">
   <path d="M33.3366-75.1181L47.3612-75.1181L47.3612-83.9103C47.3612-85.374 48.3281-86.2009 50.0999-86.2009L66.7074-86.2009C68.4815-86.2009 69.4484-85.374 69.4484-83.9103L69.4484-75.1181L83.4379-75.1181L83.4379-84.2489C83.4379-93.2496 77.8623-98.2129 67.6957-98.2129L49.0788-98.2129C38.9145-98.2129 33.3366-93.2496 33.3366-84.2489ZM13.9246-64.9178L102.885-64.9178C106.614-64.9178 109.333-67.4807 109.333-71.2078C109.333-74.8521 106.612-77.4105 102.885-77.4105L13.9246-77.4105C10.2304-77.4105 7.47429-74.8498 7.47429-71.2078C7.47429-67.4785 10.2304-64.9178 13.9246-64.9178ZM97.8208-65.9147L19.0239-65.9147L22.0991 3.36686C22.4355 11.6258 26.9965 15.7926 35.5512 15.7926L81.2912 15.7926C89.8272 15.7926 94.3633 11.6258 94.7433 3.36686ZM42.2039-2.04601C39.6885-2.04601 37.9157-3.74238 37.8557-6.29681L36.4231-54.4038C36.3631-56.9877 38.0073-58.7005 40.6382-58.7005C43.2635-58.7005 45.0572-56.9877 45.1173-54.452L46.5498-6.38633C46.6098-3.80469 44.9242-2.04601 42.2039-2.04601ZM58.4048-2.04601C55.834-2.04601 54.0697-3.71517 54.0697-6.25546L54.0697-54.4911C54.0697-57.0127 55.834-58.7005 58.4048-58.7005C60.9943-58.7005 62.7399-57.0127 62.7399-54.4911L62.7399-6.25546C62.7399-3.71517 60.9943-2.04601 58.4048-2.04601ZM74.6221-2.04146C71.8995-2.04146 70.2162-3.80241 70.2762-6.38406L71.7087-54.4497C71.7688-56.9855 73.5461-58.6983 76.1855-58.6983C78.8187-58.6983 80.4606-56.9691 80.4006-54.4016L78.9681-6.29454C78.908-3.74011 77.1211-2.04146 74.6221-2.04146Z"/>
  </g>
  <g id="Bold-M" transform="matrix(1 0 0 1 2282.85 1126)">
   <path d="M33.1456-74.5736L45.3921-74.5736L45.3921-83.2577C45.3921-85.0785 46.6036-86.1838 48.6837-86.1838L65.5805-86.1838C67.6658-86.1838 68.8773-85.0785 68.8773-83.2577L68.8773-74.5736L81.0614-74.5736L81.0614-83.6581C81.0614-92.0944 75.7382-96.9165 66.3989-96.9165L47.8081-96.9165C38.4739-96.9165 33.1456-92.0944 33.1456-83.6581ZM12.9461-65.8904L101.323-65.8904C104.466-65.8904 106.793-68.137 106.793-71.2743C106.793-74.3648 104.461-76.6012 101.323-76.6012L12.9461-76.6012C9.86602-76.6012 7.47143-74.3596 7.47143-71.2743C7.47143-68.1319 9.86602-65.8904 12.9461-65.8904ZM95.5023-66.8872L18.8295-66.8872L21.9411 3.45189C22.2474 10.9582 26.4781 14.8305 34.171 14.8305L80.1556 14.8305C87.8148 14.8305 92.0507 10.9582 92.3855 3.45189ZM41.197-1.66654C38.9348-1.66654 37.3557-3.15993 37.2985-5.4404L35.8582-55.3007C35.801-57.5863 37.2997-59.1083 39.6659-59.1083C41.9749-59.1083 43.5929-57.5863 43.6501-55.3396L45.0904-5.50263C45.1476-3.22223 43.6255-1.66654 41.197-1.66654ZM57.1347-1.66654C54.8256-1.66654 53.2126-3.16 53.2126-5.41699L53.2126-55.3578C53.2126-57.5811 54.8256-59.1083 57.1347-59.1083C59.4775-59.1083 61.0568-57.5811 61.0568-55.3578L61.0568-5.41699C61.0568-3.16 59.4775-1.66654 57.1347-1.66654ZM73.101-1.65628C70.6673-1.65628 69.1504-3.2171 69.2075-5.4975L70.6479-55.3344C70.705-57.5811 72.2945-59.1031 74.6269-59.1031C76.9983-59.1031 78.4919-57.5525 78.4347-55.2956L76.9944-5.43527C76.9372-3.15479 75.3345-1.65628 73.101-1.65628Z"/>
  </g>
  <g id="Semibold-M" transform="matrix(1 0 0 1 1987.01 1126)">
   <path d="M33.0139-74.1982L44.0346-74.1982L44.0346-82.8079C44.0346-84.8749 45.4147-86.1721 47.7074-86.1721L64.8036-86.1721C67.1034-86.1721 68.4835-84.8749 68.4835-82.8079L68.4835-74.1982L79.4231-74.1982L79.4231-83.2509C79.4231-91.2979 74.2738-96.0228 65.5048-96.0228L46.9321-96.0228C38.1702-96.0228 33.0139-91.2979 33.0139-83.2509ZM12.2715-66.5609L100.247-66.5609C102.985-66.5609 105.042-68.5895 105.042-71.3202C105.042-74.0288 102.977-76.0432 100.247-76.0432L12.2715-76.0432C9.61481-76.0432 7.46946-74.0217 7.46946-71.3202C7.46946-68.5823 9.61481-66.5609 12.2715-66.5609ZM93.9039-67.5577L18.6955-67.5577L21.8321 3.51051C22.1177 10.4979 26.1207 14.1672 33.2194 14.1672L79.3728 14.1672C86.4274 14.1672 90.4564 10.4979 90.7601 3.51051ZM40.5029-1.40494C38.4153-1.40494 36.9696-2.75838 36.9144-4.85L35.4687-55.9191C35.4135-57.9989 36.8118-59.3894 38.9956-59.3894C41.0865-59.3894 42.5835-57.9989 42.6387-55.9514L44.0844-4.89342C44.1396-2.82069 42.7302-1.40494 40.5029-1.40494ZM56.2591-1.40494C54.1304-1.40494 52.6217-2.77727 52.6217-4.83895L52.6217-55.9554C52.6217-57.9729 54.1304-59.3894 56.2591-59.3894C58.4319-59.3894 59.8964-57.9729 59.8964-55.9554L59.8964-4.83895C59.8964-2.77727 58.4319-1.40494 56.2591-1.40494ZM72.0523-1.39073C69.8179-1.39073 68.4156-2.81358 68.4708-4.88631L69.9165-55.9443C69.9717-57.9918 71.4316-59.3823 73.5524-59.3823C75.7434-59.3823 77.1346-57.9548 77.0794-55.912L75.6337-4.84289C75.5785-2.75128 74.1029-1.39073 72.0523-1.39073Z"/>
  </g>
  <g id="Medium-M" transform="matrix(1 0 0 1 1690.96 1126)">
   <path d="M32.9141-73.9136L43.0054-73.9136L43.0054-82.4667C43.0054-84.7204 44.5133-86.1631 46.9671-86.1631L64.2146-86.1631C66.677-86.1631 68.1849-84.7204 68.1849-82.4667L68.1849-73.9136L78.1808-73.9136L78.1808-82.9421C78.1808-90.6941 73.1635-95.3451 64.8269-95.3451L46.2679-95.3451C37.9399-95.3451 32.9141-90.6941 32.9141-82.9421ZM11.76-67.0693L99.4303-67.0693C101.861-67.0693 103.714-68.9325 103.714-71.355C103.714-73.7741 101.853-75.6201 99.4303-75.6201L11.76-75.6201C9.42433-75.6201 7.46796-73.7655 7.46796-71.355C7.46796-68.9239 9.42433-67.0693 11.76-67.0693ZM92.6919-68.0661L18.5938-68.0661L21.7496 3.55496C22.0193 10.1489 25.8497 13.6643 32.4979 13.6643L78.7792 13.6643C85.3755 13.6643 89.2475 10.1489 89.5276 3.55496ZM39.9766-1.20658C38.0213-1.20658 36.6768-2.45392 36.6231-4.40233L35.1733-56.3879C35.1196-58.3118 36.4419-59.6025 38.4874-59.6025C40.4129-59.6025 41.818-58.3118 41.8717-56.4154L43.3215-4.43149C43.3752-2.51622 42.0513-1.20658 39.9766-1.20658ZM55.5951-1.20658C53.6033-1.20658 52.1737-2.48707 52.1737-4.40065L52.1737-56.4085C52.1737-58.27 53.6033-59.6025 55.5951-59.6025C57.639-59.6025 59.0166-58.27 59.0166-56.4085L59.0166-4.40065C59.0166-2.48707 57.639-1.20658 55.5951-1.20658ZM71.2571-1.18938C69.1738-1.18938 67.8585-2.50762 67.9122-4.42289L69.362-56.4068C69.4157-58.3032 70.7773-59.5939 72.7377-59.5939C74.7919-59.5939 76.1055-58.2597 76.0518-56.3793L74.602-4.39373C74.5483-2.44532 73.169-1.18938 71.2571-1.18938Z"/>
  </g>
  <g id="Regular-M" transform="matrix(1 0 0 1 1395.12 1126)">
   <path d="M32.7838-73.5424L41.6628-73.5424L41.6628-82.0218C41.6628-84.519 43.3375-86.1515 46.0015-86.1515L63.4463-86.1515C66.1208-86.1515 67.7955-84.519 67.7955-82.0218L67.7955-73.5424L76.5604-73.5424L76.5604-82.5394C76.5604-89.9064 71.7152-94.4612 63.9427-94.4612L45.4016-94.4612C37.6396-94.4612 32.7838-89.9064 32.7838-82.5394ZM11.0928-67.7324L98.3655-67.7324C100.396-67.7324 101.982-69.38 101.982-71.4004C101.982-73.4419 100.386-75.0683 98.3655-75.0683L11.0928-75.0683C9.17588-75.0683 7.46601-73.4313 7.46601-71.4004C7.46601-69.3694 9.17588-67.7324 11.0928-67.7324ZM91.1111-68.7293L18.4613-68.7293L21.6418 3.61294C21.891 9.69369 25.4962 13.0084 31.5568 13.0084L78.005 13.0084C84.0033 13.0084 87.6708 9.69369 87.92 3.61294ZM39.2902-0.947858C37.5074-0.947858 36.295-2.05679 36.2432-3.81842L34.7881-56.9994C34.7364-58.7199 35.9594-59.8805 37.8245-59.8805C39.5344-59.8805 40.8197-58.7199 40.8714-57.0205L42.3265-3.82897C42.3783-2.11909 41.1658-0.947858 39.2902-0.947858ZM54.7292-0.947858C52.9158-0.947858 51.5893-2.10854 51.5893-3.82897L51.5893-56.9994C51.5893-58.6576 52.9158-59.8805 54.7292-59.8805C56.6048-59.8805 57.869-58.6576 57.869-56.9994L57.869-3.82897C57.869-2.10854 56.6048-0.947858 54.7292-0.947858ZM70.2199-0.926756C68.3337-0.926756 67.1318-2.10854 67.1836-3.81842L68.6387-57.01C68.6904-58.7093 69.924-59.87 71.675-59.87C73.5507-59.87 74.7632-58.6576 74.7114-56.9889L73.2563-3.80786C73.2045-2.04624 71.9509-0.926756 70.2199-0.926756Z"/>
  </g>
  <g id="Light-M" transform="matrix(1 0 0 1 1098.98 1126)">
   <path d="M32.9036-73.0804L39.7122-73.0804L39.7122-82.1758C39.7122-85.1863 41.6777-87.0413 44.9235-87.0413L63.3778-87.0413C66.6513-87.0413 68.6168-85.1863 68.6168-82.1758L68.6168-73.0804L75.3285-73.0804L75.3285-82.5222C75.3285-89.3075 70.911-93.4687 63.6689-93.4687L44.5631-93.4687C37.3487-93.4687 32.9036-89.3075 32.9036-82.5222ZM10.2886-68.8617L98.0404-68.8617C99.6265-68.8617 100.852-70.15 100.852-71.7084C100.852-73.3221 99.5988-74.555 98.0404-74.555L10.2886-74.555C8.79944-74.555 7.4489-73.2944 7.4489-71.7084C7.4489-70.1223 8.79944-68.8617 10.2886-68.8617ZM90.1358-69.8586L18.2902-69.8586L21.7787 4.21182C22.0279 9.84769 25.8213 13.3848 31.5055 13.3848L76.8928 13.3848C82.5147 13.3848 86.3703 9.84769 86.6196 4.21182ZM38.9479-0.571417C37.5074-0.571417 36.5516-1.45791 36.517-2.84309L34.925-57.4957C34.8904-58.8739 35.8738-59.795 37.3283-59.795C38.6788-59.795 39.7246-58.8739 39.7592-57.551L41.3512-2.87075C41.3858-1.52021 40.4301-0.571417 38.9479-0.571417ZM54.1645-0.571417C52.7447-0.571417 51.6919-1.49255 51.6919-2.87075L51.6919-57.4957C51.6919-58.8116 52.7447-59.795 54.1645-59.795C55.6466-59.795 56.637-58.8116 56.637-57.4957L56.637-2.87075C56.637-1.49255 55.6466-0.571417 54.1645-0.571417ZM69.4157-0.516093C67.9059-0.516093 66.9778-1.49255 67.0124-2.84309L68.6044-57.5233C68.6391-58.8462 69.6502-59.7673 71.0077-59.7673C72.4898-59.7673 73.4456-58.8116 73.411-57.468L71.819-2.81543C71.7843-1.43024 70.8216-0.516093 69.4157-0.516093Z"/>
  </g>
  <g id="Thin-M" transform="matrix(1 0 0 1 803.03 1126)">
   <path d="M33.062-72.4693L37.1323-72.4693L37.1323-82.3795C37.1323-86.0689 39.4826-88.218 43.4978-88.218L63.2873-88.218C67.3528-88.218 69.7031-86.0689 69.7031-82.3795L69.7031-72.4693L73.6991-72.4693L73.6991-82.4996C73.6991-88.5154 69.8474-92.1562 63.3068-92.1562L43.4542-92.1562C36.964-92.1562 33.062-88.5154 33.062-82.4996ZM9.22492-70.3553L97.6105-70.3553C98.6081-70.3553 99.3588-71.1683 99.3588-72.1157C99.3588-73.1637 98.5578-73.8761 97.6105-73.8761L9.22492-73.8761C8.30157-73.8761 7.42627-73.1134 7.42627-72.1157C7.42627-71.118 8.30157-70.3553 9.22492-70.3553ZM88.8458-71.3522L18.0639-71.3522L21.9598 5.00389C22.209 10.0514 26.2513 13.8827 31.4376 13.8827L75.4218 13.8827C80.5458 13.8827 84.6504 10.0514 84.8996 5.00389ZM38.4953-0.0735439C37.5074-0.0735439 36.8911-0.665834 36.8791-1.55315L35.1061-58.1519C35.094-59.0775 35.7606-59.6818 36.672-59.6818C37.5473-59.6818 38.2762-59.0775 38.2882-58.2525L40.0613-1.60344C40.0733-0.728139 39.457-0.0735439 38.4953-0.0735439ZM53.4177-0.0735439C52.5184-0.0735439 51.8277-0.677846 51.8277-1.60344L51.8277-58.1519C51.8277-59.0152 52.5184-59.6818 53.4177-59.6818C54.3793-59.6818 55.0076-59.0152 55.0076-58.1519L55.0076-1.60344C55.0076-0.677846 54.3793-0.0735439 53.4177-0.0735439ZM68.3521 0.0270413C67.3401 0.0270413 66.7741-0.677846 66.7861-1.55315L68.5592-58.2022C68.5712-59.0272 69.2881-59.6315 70.1251-59.6315C71.0867-59.6315 71.7031-59.0152 71.691-58.1016L69.918-1.50286C69.906-0.615542 69.328 0.0270413 68.3521 0.0270413Z"/>
  </g>
  <g id="Ultralight-M" transform="matrix(1 0 0 1 506.707 1126)">
   <path d="M33.1431-72.1564L35.8109-72.1564L35.8109-82.4838C35.8109-86.521 38.3582-88.8208 42.7675-88.8208L63.2409-88.8208C67.7121-88.8208 70.2595-86.521 70.2595-82.4838L70.2595-72.1564L72.8645-72.1564L72.8645-82.488C72.8645-88.1097 69.3026-91.4839 63.1214-91.4839L42.8862-91.4839C36.7669-91.4839 33.1431-88.1097 33.1431-82.488ZM8.68013-71.1204L97.3902-71.1204C98.0865-71.1204 98.5938-71.6899 98.5938-72.3244C98.5938-73.0825 98.0246-73.5283 97.3902-73.5283L8.68013-73.5283C8.04656-73.5283 7.41468-73.0207 7.41468-72.3244C7.41468-71.6281 8.04656-71.1204 8.68013-71.1204ZM88.1851-72.1172L17.948-72.1172L22.0525 5.40959C22.3017 10.1557 26.4715 14.1377 31.4028 14.1377L74.6684 14.1377C79.5374 14.1377 83.7695 10.1557 84.0187 5.40959ZM38.2635 0.181464C37.5074 0.181464 37.065-0.260139 37.0646-0.892445L35.1988-58.4881C35.1984-59.1819 35.7027-59.6239 36.3358-59.6239C36.9677-59.6239 37.5344-59.1819 37.5348-58.6119L39.4006-0.954328C39.401-0.322444 38.9585 0.181464 38.2635 0.181464ZM53.0352 0.181464C52.4025 0.181464 51.8973-0.26056 51.8973-0.954328L51.8973-58.4881C51.8973-59.1196 52.4025-59.6239 53.0352-59.6239C53.7302-59.6239 54.1731-59.1196 54.1731-58.4881L54.1731-0.954328C54.1731-0.26056 53.7302 0.181464 53.0352 0.181464ZM67.8073 0.305232C67.0504 0.305232 66.6698-0.26056 66.6702-0.892445L68.536-58.55C68.5364-59.12 69.1026-59.562 69.6731-59.562C70.3681-59.562 70.8105-59.1196 70.8101-58.4262L68.9443-0.830561C68.9439-0.198255 68.5629 0.305232 67.8073 0.305232Z"/>
  </g>
  <g id="Black-S" transform="matrix(1 0 0 1 2886.43 696)">
   <path d="M26.3184-66.9922L38.916-66.9922L38.916-74.0234C38.916-74.8535 39.4531-75.2441 40.5762-75.2441L53.3691-75.2441C54.4922-75.2441 55.0293-74.8535 55.0293-74.0234L55.0293-66.9922L67.627-66.9922L67.627-74.2188C67.627-81.7871 63.0371-85.791 54.2969-85.791L39.6484-85.791C30.9082-85.791 26.3184-81.7871 26.3184-74.2188ZM11.8164-57.6172L82.1289-57.6172C85.5957-57.6172 88.0859-59.9121 88.0859-63.3789C88.0859-66.748 85.5957-69.043 82.1289-69.043L11.8164-69.043C8.34961-69.043 5.85938-66.748 5.85938-63.3789C5.85938-59.9121 8.34961-57.6172 11.8164-57.6172ZM78.8574-58.3984L15.0879-58.3984L17.4805-5.0293C17.7734 2.14844 21.6797 5.71289 29.1992 5.71289L64.7461 5.71289C72.2656 5.71289 76.123 2.14844 76.4648-5.0293ZM34.0332-9.57031C31.8359-9.57031 30.2734-11.084 30.2246-13.3301L29.1016-49.4141C29.0527-51.709 30.4688-53.2227 32.7637-53.2227C35.1074-53.2227 36.6699-51.709 36.7188-49.4629L37.8418-13.4277C37.8906-11.1328 36.4258-9.57031 34.0332-9.57031ZM46.9727-9.57031C44.7266-9.57031 43.2129-11.0352 43.2129-13.2812L43.2129-49.5117C43.2129-51.7578 44.7266-53.2227 46.9727-53.2227C49.2188-53.2227 50.7324-51.7578 50.7324-49.5117L50.7324-13.2812C50.7324-11.0352 49.2188-9.57031 46.9727-9.57031ZM59.9121-9.57031C57.5195-9.57031 56.0547-11.1328 56.1035-13.4277L57.2266-49.4629C57.2754-51.709 58.8379-53.2227 61.1816-53.2227C63.4766-53.2227 64.8926-51.709 64.8438-49.4141L63.7207-13.3301C63.6719-11.084 62.1094-9.57031 59.9121-9.57031Z"/>
  </g>
  <g id="Heavy-S" transform="matrix(1 0 0 1 2590.62 696)">
   <path d="M26.157-66.6349L37.6598-66.6349L37.6598-73.5048C37.6598-74.5424 38.3468-75.1174 39.6312-75.1174L52.5163-75.1174C53.8007-75.1174 54.4876-74.5424 54.4876-73.5048L54.4876-66.6349L65.9674-66.6349L65.9674-73.7693C65.9674-80.9804 61.5159-84.9267 53.3403-84.9267L38.7841-84.9267C30.6086-84.9267 26.157-80.9804 26.157-73.7693ZM11.171-58.2165L80.9765-58.2165C84.0514-58.2165 86.2881-60.3155 86.2881-63.3904C86.2881-66.3908 84.0514-68.4898 80.9765-68.4898L11.171-68.4898C8.11912-68.4898 5.85938-66.3908 5.85938-63.3904C5.85938-60.3155 8.11912-58.2165 11.171-58.2165ZM77.2094-58.9977L14.9611-58.9977L17.3422-5.04082C17.6121 1.61831 21.2418 4.92923 28.1505 4.92923L64.0201 4.92923C70.9173 4.92923 74.5211 1.61831 74.8284-5.04082ZM33.3072-9.3283C31.2597-9.3283 29.8125-10.7152 29.7636-12.8L28.6521-50.0364C28.6033-52.1469 29.9386-53.5453 32.0837-53.5453C34.2316-53.5453 35.6903-52.1469 35.7392-50.0737L36.8507-12.8746C36.8995-10.764 35.5269-9.3283 33.3072-9.3283ZM46.0737-9.3283C43.9775-9.3283 42.5445-10.6894 42.5445-12.7626L42.5445-50.111C42.5445-52.1727 43.9775-53.5453 46.0737-53.5453C48.1815-53.5453 49.603-52.1727 49.603-50.111L49.603-12.7626C49.603-10.6894 48.1815-9.3283 46.0737-9.3283ZM58.8519-9.3283C56.6321-9.3283 55.2595-10.764 55.3083-12.8746L56.4198-50.0737C56.4687-52.1469 57.9159-53.5453 60.0753-53.5453C62.2204-53.5453 63.5557-52.1354 63.5069-50.0364L62.3954-12.8C62.3466-10.7152 60.8878-9.3283 58.8519-9.3283Z"/>
  </g>
  <g id="Bold-S" transform="matrix(1 0 0 1 2294.91 696)">
   <path d="M25.9766-66.2354L36.2549-66.2354L36.2549-72.9248C36.2549-74.1943 37.1094-74.9756 38.5742-74.9756L51.5625-74.9756C53.0273-74.9756 53.8818-74.1943 53.8818-72.9248L53.8818-66.2354L64.1113-66.2354L64.1113-73.2666C64.1113-80.0781 59.8145-83.96 52.2705-83.96L37.8174-83.96C30.2734-83.96 25.9766-80.0781 25.9766-73.2666ZM10.4492-58.8867L79.6875-58.8867C82.3242-58.8867 84.2773-60.7666 84.2773-63.4033C84.2773-65.9912 82.3242-67.8711 79.6875-67.8711L10.4492-67.8711C7.86133-67.8711 5.85938-65.9912 5.85938-63.4033C5.85938-60.7666 7.86133-58.8867 10.4492-58.8867ZM75.3662-59.668L14.8193-59.668L17.1875-5.05371C17.4316 1.02539 20.752 4.05273 26.9775 4.05273L63.208 4.05273C69.4092 4.05273 72.7295 1.02539 72.998-5.05371ZM32.4951-9.05762C30.6152-9.05762 29.2969-10.3027 29.248-12.207L28.1494-50.7324C28.1006-52.6367 29.3457-53.9062 31.3232-53.9062C33.252-53.9062 34.5947-52.6367 34.6436-50.7568L35.7422-12.2559C35.791-10.3516 34.5215-9.05762 32.4951-9.05762ZM45.0684-9.05762C43.1396-9.05762 41.7969-10.3027 41.7969-12.1826L41.7969-50.7812C41.7969-52.6367 43.1396-53.9062 45.0684-53.9062C47.0215-53.9062 48.3398-52.6367 48.3398-50.7812L48.3398-12.1826C48.3398-10.3027 47.0215-9.05762 45.0684-9.05762ZM57.666-9.05762C55.6396-9.05762 54.3701-10.3516 54.4189-12.2559L55.5176-50.7568C55.5664-52.6367 56.8848-53.9062 58.8379-53.9062C60.8154-53.9062 62.0605-52.6123 62.0117-50.7324L60.9131-12.207C60.8643-10.3027 59.5215-9.05762 57.666-9.05762Z"/>
  </g>
  <g id="Semibold-S" transform="matrix(1 0 0 1 1998.89 696)">
   <path d="M25.8521-65.9599L35.2862-65.9599L35.2862-72.5249C35.2862-73.9544 36.2563-74.8778 37.8455-74.8778L50.9049-74.8778C52.4941-74.8778 53.4642-73.9544 53.4642-72.5249L53.4642-65.9599L62.8316-65.9599L62.8316-72.92C62.8316-79.4561 58.6414-83.2935 51.5329-83.2935L37.1509-83.2935C30.0424-83.2935 25.8521-79.4561 25.8521-72.92ZM9.95156-59.3488L78.7988-59.3488C81.1334-59.3488 82.891-61.0776 82.891-63.4122C82.891-65.7157 81.1334-67.4445 78.7988-67.4445L9.95156-67.4445C7.68359-67.4445 5.85938-65.7157 5.85938-63.4122C5.85938-61.0776 7.68359-59.3488 9.95156-59.3488ZM74.0954-60.1301L14.7216-60.1301L17.0809-5.0626C17.3072 0.616602 20.4143 3.44844 26.1688 3.44844L62.6481 3.44844C68.3694 3.44844 71.4942 0.616602 71.7361-5.0626ZM31.9353-8.871C30.1709-8.871 28.9414-10.0184 28.8926-11.7982L27.8028-51.2123C27.754-52.9744 28.9369-54.1551 30.7989-54.1551C32.5766-54.1551 33.8394-52.9744 33.8882-51.2278L34.9779-11.8293C35.0268-10.0672 33.8283-8.871 31.9353-8.871ZM44.3752-8.871C42.562-8.871 41.2814-10.0361 41.2814-11.7827L41.2814-51.2434C41.2814-52.9566 42.562-54.1551 44.3752-54.1551C46.2217-54.1551 47.4689-52.9566 47.4689-51.2434L47.4689-11.7827C47.4689-10.0361 46.2217-8.871 44.3752-8.871ZM56.8484-8.871C54.9554-8.871 53.7569-10.0672 53.8058-11.8293L54.8955-51.2278C54.9443-52.9744 56.1738-54.1551 57.9848-54.1551C59.8468-54.1551 61.0297-52.9411 60.9809-51.2123L59.8911-11.7982C59.8423-10.0184 58.5795-8.871 56.8484-8.871Z"/>
  </g>
  <g id="Medium-S" transform="matrix(1 0 0 1 1702.71 696)">
   <path d="M25.7578-65.751L34.5518-65.751L34.5518-72.2217C34.5518-73.7725 35.6094-74.8037 37.293-74.8037L50.4062-74.8037C52.0898-74.8037 53.1475-73.7725 53.1475-72.2217L53.1475-65.751L61.8613-65.751L61.8613-72.6572C61.8613-78.9844 57.752-82.7881 50.9736-82.7881L36.6455-82.7881C29.8672-82.7881 25.7578-78.9844 25.7578-72.6572ZM9.57422-59.6992L78.125-59.6992C80.2305-59.6992 81.8398-61.3135 81.8398-63.4189C81.8398-65.5068 80.2305-67.1211 78.125-67.1211L9.57422-67.1211C7.54883-67.1211 5.85938-65.5068 5.85938-63.4189C5.85938-61.3135 7.54883-59.6992 9.57422-59.6992ZM73.1318-60.4805L14.6475-60.4805L17-5.06934C17.2129 0.306641 20.1582 2.99023 25.5557 2.99023L62.2236 2.99023C67.5811 2.99023 70.5576 0.306641 70.7793-5.06934ZM31.5107-8.72949C29.834-8.72949 28.6719-9.80273 28.623-11.4883L27.54-51.5762C27.4912-53.2305 28.627-54.3438 30.4014-54.3438C32.0645-54.3438 33.2666-53.2305 33.3154-51.585L34.3984-11.5059C34.4473-9.85156 33.3027-8.72949 31.5107-8.72949ZM43.8496-8.72949C42.124-8.72949 40.8906-9.83398 40.8906-11.4795L40.8906-51.5938C40.8906-53.1992 42.124-54.3438 43.8496-54.3438C45.6152-54.3438 46.8086-53.1992 46.8086-51.5938L46.8086-11.4795C46.8086-9.83398 45.6152-8.72949 43.8496-8.72949ZM56.2285-8.72949C54.4365-8.72949 53.292-9.85156 53.3408-11.5059L54.4238-51.585C54.4727-53.2305 55.6348-54.3438 57.3379-54.3438C59.1123-54.3438 60.248-53.1904 60.1992-51.5762L59.1162-11.4883C59.0674-9.80273 57.8652-8.72949 56.2285-8.72949Z"/>
  </g>
  <g id="Regular-S" transform="matrix(1 0 0 1 1406.68 696)">
   <path d="M25.6348-65.4785L33.5938-65.4785L33.5938-71.8262C33.5938-73.5352 34.7656-74.707 36.5723-74.707L49.7559-74.707C51.5625-74.707 52.7344-73.5352 52.7344-71.8262L52.7344-65.4785L60.5957-65.4785L60.5957-72.3145C60.5957-78.3691 56.5918-82.1289 50.2441-82.1289L35.9863-82.1289C29.6387-82.1289 25.6348-78.3691 25.6348-72.3145ZM9.08203-60.1562L77.2461-60.1562C79.0527-60.1562 80.4688-61.6211 80.4688-63.4277C80.4688-65.2344 79.0527-66.6992 77.2461-66.6992L9.08203-66.6992C7.37305-66.6992 5.85938-65.2344 5.85938-63.4277C5.85938-61.6211 7.37305-60.1562 9.08203-60.1562ZM71.875-60.9375L14.5508-60.9375L16.8945-5.07812C17.0898-0.0976562 19.8242 2.39258 24.7559 2.39258L61.6699 2.39258C66.5527 2.39258 69.3359-0.0976562 69.5312-5.07812ZM30.957-8.54492C29.3945-8.54492 28.3203-9.52148 28.2715-11.084L27.1973-52.0508C27.1484-53.5645 28.2227-54.5898 29.8828-54.5898C31.3965-54.5898 32.5195-53.5645 32.5684-52.0508L33.6426-11.084C33.6914-9.57031 32.6172-8.54492 30.957-8.54492ZM43.1641-8.54492C41.5527-8.54492 40.3809-9.57031 40.3809-11.084L40.3809-52.0508C40.3809-53.5156 41.5527-54.5898 43.1641-54.5898C44.8242-54.5898 45.9473-53.5156 45.9473-52.0508L45.9473-11.084C45.9473-9.57031 44.8242-8.54492 43.1641-8.54492ZM55.4199-8.54492C53.7598-8.54492 52.6855-9.57031 52.7344-11.084L53.8086-52.0508C53.8574-53.5645 54.9316-54.5898 56.4941-54.5898C58.1543-54.5898 59.2285-53.5156 59.1797-52.0508L58.1055-11.084C58.0566-9.52148 56.9336-8.54492 55.4199-8.54492Z"/>
  </g>
  <g id="Light-S" transform="matrix(1 0 0 1 1110.48 696)">
   <path d="M25.7407-65.0698L31.8682-65.0698L31.8682-71.9624C31.8682-74.1255 33.2974-75.4941 35.6187-75.4941L49.6953-75.4941C52.0317-75.4941 53.4609-74.1255 53.4609-71.9624L53.4609-65.0698L59.5059-65.0698L59.5059-72.2993C59.5059-77.8394 55.8804-81.251 50.002-81.251L35.2446-81.251C29.3813-81.251 25.7407-77.8394 25.7407-72.2993ZM8.37061-61.1553L76.9585-61.1553C78.3716-61.1553 79.4697-62.3022 79.4697-63.7002C79.4697-65.1284 78.3565-66.2451 76.9585-66.2451L8.37061-66.2451C7.04004-66.2451 5.84424-65.1133 5.84424-63.7002C5.84424-62.2871 7.04004-61.1553 8.37061-61.1553ZM71.0122-61.9365L14.3994-61.9365L17.0156-4.54834C17.2109 0.0385731 20.1118 2.72558 24.7104 2.72558L60.686 2.72558C65.2359 2.72558 68.1856 0.0385731 68.3809-4.54834ZM30.6543-8.21192C29.3945-8.21192 28.5474-8.9917 28.5137-10.2212L27.3184-52.4897C27.2847-53.7007 28.147-54.5142 29.4439-54.5142C30.6397-54.5142 31.5508-53.7007 31.5845-52.52L32.7798-10.2363C32.8135-9.04053 31.9663-8.21192 30.6543-8.21192ZM42.6646-8.21192C41.4014-8.21192 40.4717-9.02539 40.4717-10.2363L40.4717-52.4897C40.4717-53.6519 41.4014-54.5142 42.6646-54.5142C43.9766-54.5142 44.8574-53.6519 44.8574-52.4897L44.8574-10.2363C44.8574-9.02539 43.9766-8.21192 42.6646-8.21192ZM54.7085-8.18164C53.3814-8.18164 52.5493-9.02539 52.583-10.2212L53.7783-52.5049C53.812-53.6855 54.6895-54.499 55.9038-54.499C57.2158-54.499 58.063-53.6519 58.0293-52.4746L56.834-10.2061C56.8003-8.97657 55.9346-8.18164 54.7085-8.18164Z"/>
  </g>
  <g id="Thin-S" transform="matrix(1 0 0 1 814.436 696)">
   <path d="M25.8809-64.5293L29.586-64.5293L29.586-72.1426C29.586-74.9062 31.3555-76.5351 34.3574-76.5351L49.6152-76.5351C52.6523-76.5351 54.4219-74.9062 54.4219-72.1426L54.4219-64.5293L58.0645-64.5293L58.0645-72.2793C58.0645-77.1387 54.9395-80.0899 49.6816-80.0899L34.2637-80.0899C29.041-80.0899 25.8809-77.1387 25.8809-72.2793ZM7.4297-62.4765L76.5781-62.4765C77.4707-62.4765 78.1485-63.2031 78.1485-64.0605C78.1485-64.9883 77.4356-65.6445 76.5781-65.6445L7.4297-65.6445C6.59962-65.6445 5.82422-64.9531 5.82422-64.0605C5.82422-63.168 6.59962-62.4765 7.4297-62.4765ZM69.8711-63.2578L14.1992-63.2578L17.1758-3.84767C17.3711 0.218748 20.4922 3.16601 24.6504 3.16601L59.3848 3.16601C63.4942 3.16601 66.6641 0.218748 66.8594-3.84767ZM30.2539-7.77149C29.3945-7.77149 28.8477-8.29103 28.834-9.08009L27.4785-53.0703C27.4648-53.8809 28.0469-54.4141 28.8633-54.4141C29.6387-54.4141 30.2695-53.8809 30.2832-53.1406L31.6387-9.11525C31.6524-8.33985 31.1055-7.77149 30.2539-7.77149ZM42.0039-7.77149C41.2012-7.77149 40.5918-8.3047 40.5918-9.11525L40.5918-53.0703C40.5918-53.832 41.2012-54.4141 42.0039-54.4141C42.8555-54.4141 43.416-53.832 43.416-53.0703L43.416-9.11525C43.416-8.3047 42.8555-7.77149 42.0039-7.77149ZM53.7676-7.70118C52.8809-7.70118 52.3691-8.3047 52.3828-9.08009L53.7383-53.1055C53.752-53.8457 54.3691-54.3789 55.1231-54.3789C55.9746-54.3789 56.5215-53.832 56.5078-53.0351L55.1524-9.04494C55.1387-8.25587 54.6133-7.70118 53.7676-7.70118Z"/>
  </g>
  <g id="Ultralight-S" transform="matrix(1 0 0 1 518.068 696)">
   <path d="M25.9526-64.2525L28.417-64.2525L28.417-72.2349C28.417-75.3061 30.3609-77.0683 33.7114-77.0683L49.5742-77.0683C52.9702-77.0683 54.914-75.3061 54.914-72.2349L54.914-64.2525L57.3262-64.2525L57.3262-72.269C57.3262-76.7798 54.4575-79.4951 49.5176-79.4951L33.7612-79.4951C28.8667-79.4951 25.9526-76.7798 25.9526-72.269ZM6.94777-63.1533L76.3833-63.1533C77.0093-63.1533 77.4717-63.6645 77.4717-64.2451C77.4717-64.9165 76.9639-65.3369 76.3833-65.3369L6.94777-65.3369C6.37403-65.3369 5.81397-64.8711 5.81397-64.2451C5.81397-63.6191 6.37403-63.1533 6.94777-63.1533ZM69.2866-63.9345L14.0967-63.9345L17.2578-3.48878C17.4531 0.311032 20.687 3.39159 24.6196 3.39159L58.7183 3.39159C62.6021 3.39159 65.8848 0.311032 66.0801-3.48878ZM30.0488-7.54591C29.3945-7.54591 29.0015-7.93214 28.998-8.49563L27.5605-53.3677C27.5571-53.9731 27.9956-54.3628 28.5659-54.3628C29.126-54.3628 29.6133-53.9731 29.6167-53.4585L31.0542-8.54104C31.0576-7.98097 30.6646-7.54591 30.0488-7.54591ZM41.6655-7.54591C41.0986-7.54591 40.6533-7.93556 40.6533-8.54104L40.6533-53.3677C40.6533-53.9243 41.0986-54.3628 41.6655-54.3628C42.2813-54.3628 42.6778-53.9243 42.6778-53.3677L42.6778-8.54104C42.6778-7.93556 42.2813-7.54591 41.6655-7.54591ZM53.2857-7.45509C52.6245-7.45509 52.2769-7.93556 52.2803-8.49563L53.7178-53.4131C53.7212-53.9277 54.2051-54.3174 54.7232-54.3174C55.3389-54.3174 55.732-53.9243 55.7285-53.3223L54.291-8.45022C54.2876-7.88673 53.9365-7.45509 53.2857-7.45509Z"/>
  </g>
 </g>
</svg>
